<?xml version="1.0" standalone="no"?>
<!DOCTYPE svg PUBLIC "-//W3C//DTD SVG 20010904//EN"
 "http://www.w3.org/TR/2001/REC-SVG-20010904/DTD/svg10.dtd">
<svg version="1.0" xmlns="http://www.w3.org/2000/svg"
 width="91.000000pt" height="35.000000pt" viewBox="0 0 91.000000 35.000000"
 preserveAspectRatio="xMidYMid meet">

<g transform="translate(0.000000,35.000000) scale(0.100000,-0.100000)"
fill="#000000" stroke="none">
<path d="M165 282 c-53 -11 -82 -66 -61 -117 30 -71 118 -76 154 -8 20 36 14
43 -30 41 -37 -1 -39 -2 -10 -5 56 -7 29 -63 -31 -63 -38 0 -50 7 -66 37 -28
53 21 110 84 99 19 -4 35 -5 35 -2 0 8 -55 22 -75 18z"/>
<path d="M308 209 c-21 -12 -24 -69 -6 -87 22 -22 66 -14 85 14 15 24 15 29 2
53 -16 28 -53 38 -81 20z m62 -24 c14 -17 5 -51 -16 -59 -8 -3 -23 3 -34 14
-16 16 -18 25 -10 40 13 23 42 26 60 5z"/>
<path d="M567 202 c-37 -41 -8 -99 45 -88 31 6 33 4 18 -25 -12 -22 -40 -25
-59 -6 -11 10 -13 9 -9 -2 7 -23 43 -31 67 -15 18 13 21 25 21 80 0 44 -4 64
-12 64 -7 0 -22 3 -33 6 -13 3 -27 -2 -38 -14z m63 -17 c6 -8 9 -23 5 -34 -11
-36 -58 -37 -68 -2 -11 42 36 69 63 36z"/>
<path d="M733 208 c-21 -27 -23 -51 -8 -75 13 -19 23 -23 47 -21 17 2 33 9 36
16 3 11 0 12 -16 3 -21 -11 -52 -6 -52 9 0 5 16 14 35 21 19 7 35 18 35 24 0
31 -58 48 -77 23z m57 -17 c0 -10 -24 -21 -47 -21 -13 0 -13 3 -3 15 13 16 50
21 50 6z"/>
</g>
</svg>
